<svg xmlns="http://www.w3.org/2000/svg" width="552" height="398" viewBox="0 0 552 398">
    <defs>
        <linearGradient id="linear-gradient" x1=".482" x2=".485" y1=".031" y2=".774" gradientUnits="objectBoundingBox">
            <stop offset="0" stop-color="#00bede" stop-opacity=".988"/>
            <stop offset="1" stop-color="#35e1ca" stop-opacity=".11"/>
        </linearGradient>
        <linearGradient id="linear-gradient-2" x1=".484" x2=".486" y1=".294" y2=".815" gradientUnits="objectBoundingBox">
            <stop offset="0" stop-color="#238bea"/>
            <stop offset=".732" stop-color="#1fd3d2" stop-opacity=".4"/>
            <stop offset="1" stop-color="#35d3e1" stop-opacity=".141"/>
        </linearGradient>
        <style>
            .cls-1,.cls-23{fill:none}.cls-1{stroke:#195dff;stroke-linecap:round;stroke-miterlimit:10}.cls-2{fill:#fff}.cls-8{opacity:.5}.cls-9{fill:#e2edff}.cls-10,.cls-22,.cls-23,.cls-9{stroke:#002226}.cls-10,.cls-22{fill:#f8feff}.cls-12{fill:#dcf5f8;stroke:#000}.cls-14{fill:#002226}.cls-22,.cls-23{stroke-width:.5px}
        </style>
    </defs>
    <g id="Group_12548" transform="translate(-1168 -316)">
        <g id="Group_12155" transform="translate(0 -53)">
            <g id="Group_12154">
                <path id="Line_291" d="M0 0L58 0" class="cls-1" transform="translate(1661.5 700.883)"/>
                <path id="Line_292" d="M0 0L492 0" class="cls-1" transform="translate(1169.5 700.883)"/>
            </g>
        </g>
        <g id="Group_12156" transform="translate(1212.8 371.519)">
            <g id="Group_1412" transform="translate(336.964 59.182)">
                <ellipse id="Ellipse_13" cx="12.2" cy="12.98" class="cls-2" rx="12.2" ry="12.98" transform="rotate(-3.96 24.319 .84)"/>
                <path id="Union_4" fill="#fff" stroke="rgba(0,0,0,0)" stroke-miterlimit="10" d="M82.212 126.689l-.074.125s-.174-.119-.5-.355a13.173 13.173 0 0 1-5.063-3.864C60.642 109.823 15.065 68.226 0 0c0 0 19.159 53.04 90.47 100.752a12.979 12.979 0 0 1 4.845 3.181l.3.191-.045.076a14.2 14.2 0 0 1 3.654 8.635c.522 7.564-4.818 14.093-11.926 14.583q-.426.029-.848.029a12.2 12.2 0 0 1-4.238-.758z" transform="rotate(-169 59.096 79.034)"/>
            </g>
            <path id="Path_552" fill="url(#linear-gradient)" d="M1097.174 355.571v-59.583C1097.174 176.149 1199.86 79 1326.53 79s229.355 97.149 229.355 216.988v59.584" opacity="0.2" transform="translate(-1097.174 -79)"/>
            <path id="Path_553" d="M1097.174 353.615v-59.162C1097.174 175.462 1199.86 79 1326.53 79s229.355 96.462 229.355 215.453v59.162" class="cls-1" transform="translate(-1094.77 -77.361)"/>
            <path id="Path_990" fill="url(#linear-gradient-2)" d="M1097.174 355.571v-59.583C1097.174 176.149 1199.86 79 1326.53 79s229.355 97.149 229.355 216.988v59.584" opacity="0.2" transform="translate(-1094.77 -76.596)"/>
            <ellipse id="Ellipse_13-2" cx="12.2" cy="12.98" fill="#fff" opacity="0.6" rx="12.2" ry="12.98" transform="rotate(-3.96 1049.425 -4847.302)"/>
            <path id="Union_4-2" fill="#fff" stroke="rgba(0,0,0,0)" stroke-miterlimit="10" d="M82.212 126.689l-.074.125s-.174-.119-.5-.355a13.173 13.173 0 0 1-5.063-3.864C60.642 109.823 15.065 68.226 0 0c0 0 19.159 53.04 90.47 100.752a12.979 12.979 0 0 1 4.845 3.181l.3.191-.045.076a14.2 14.2 0 0 1 3.654 8.635c.522 7.564-4.818 14.093-11.926 14.583q-.426.029-.848.029a12.2 12.2 0 0 1-4.238-.758z" opacity="0.6" transform="rotate(-169 230.427 92.402)"/>
        </g>
        <g id="Group_12158" class="cls-8" transform="rotate(4.01 -4446.348 20911.014)">
            <g id="Group_2225" transform="translate(77.466 13.058)">
                <g id="Group_2224">
                    <path id="Path_1374" d="M0 .735l1.984-.6A3.194 3.194 0 0 1 3.44.045l16.876 2.849a1.408 1.408 0 0 1 .172 2.736l-5.474 1.652a1.416 1.416 0 0 1-1-.07z" class="cls-9"/>
                </g>
            </g>
            <g id="Group_2227">
                <g id="Group_2226">
                    <path id="Path_1375" d="M5.784 12.644l20.674 17.12c9.754 3.866 32.006-2.845 35.074-3.771L147.012.217C150.373-.8 163.931 2 169.592 3.133a2.153 2.153 0 0 1 .971 3.616C156.418 21.847 55.948 47.125 55.948 47.125 29.8 54.082 15.756 42.338 14.1 38.829L0 14.387z" class="cls-9"/>
                </g>
            </g>
            <g id="Group_2229" transform="translate(148.717 .676)">
                <g id="Group_2228">
                    <path id="Path_1376" d="M1.72 4.7a1.341 1.341 0 0 1-1.67-.982 1.455 1.455 0 0 1 .938-1.77L7.45 0c2.077.307 4.256.686 6.319 1.069z"/>
                </g>
            </g>
            <g id="Group_2245" transform="translate(64.927 7.861)">
                <g id="Group_2232" transform="translate(17.462 15.797)">
                    <g id="Group_2231">
                        <g id="Group_2230">
                            <path id="Path_1377" d="M2.656 1.066A1.355 1.355 0 0 0 .982.054a1.468 1.468 0 0 0-.929 1.8 1.352 1.352 0 0 0 1.672 1.009 1.466 1.466 0 0 0 .931-1.797z"/>
                        </g>
                    </g>
                </g>
                <g id="Group_2235" transform="translate(0 21.063)">
                    <g id="Group_2234">
                        <g id="Group_2233">
                            <path id="Path_1378" d="M2.656 1.066A1.353 1.353 0 0 0 .982.054a1.464 1.464 0 0 0-.929 1.8 1.353 1.353 0 0 0 1.676 1.008 1.465 1.465 0 0 0 .927-1.796z"/>
                        </g>
                    </g>
                </g>
                <g id="Group_2238" transform="translate(34.926 10.532)">
                    <g id="Group_2237">
                        <g id="Group_2236">
                            <path id="Path_1379" d="M2.653 1.065A1.35 1.35 0 0 0 .98.054a1.467 1.467 0 0 0-.928 1.8 1.352 1.352 0 0 0 1.675 1.008 1.466 1.466 0 0 0 .926-1.797z"/>
                        </g>
                    </g>
                </g>
                <g id="Group_2241" transform="translate(52.389 5.266)">
                    <g id="Group_2240">
                        <g id="Group_2239">
                            <path id="Path_1380" d="M2.657 1.066A1.354 1.354 0 0 0 .982.054a1.469 1.469 0 0 0-.93 1.8 1.355 1.355 0 0 0 1.675 1.009 1.468 1.468 0 0 0 .93-1.797z"/>
                        </g>
                    </g>
                </g>
                <g id="Group_2244" transform="translate(69.852)">
                    <g id="Group_2243">
                        <g id="Group_2242">
                            <path id="Path_1381" d="M2.655 1.065A1.352 1.352 0 0 0 .982.054a1.464 1.464 0 0 0-.929 1.8 1.351 1.351 0 0 0 1.672 1.008 1.466 1.466 0 0 0 .93-1.797z"/>
                        </g>
                    </g>
                </g>
            </g>
            <g id="Group_2247" transform="translate(10.151 37.813)">
                <g id="Group_2246">
                    <path id="Path_1382" d="M2.369 11.011a1.793 1.793 0 0 0 .7-.4L11.2 3.19A1.832 1.832 0 0 0 9.435.085L5.376 1.309a1.847 1.847 0 0 0-1 .749L.306 8.254a1.832 1.832 0 0 0 2.063 2.757z" class="cls-9"/>
                </g>
            </g>
            <g id="Group_2252" transform="translate(89.377 33.061)">
                <g id="Group_2249" transform="translate(0 .565)">
                    <g id="Group_2248">
                        <path id="Path_1383" d="M6.885 14.448l11.13-3.356a3.451 3.451 0 0 0 2.338-4.185L19.2 2.564A3.448 3.448 0 0 0 14.873.148l-10.91 3.29A5.807 5.807 0 0 0 .2 10.517a5.358 5.358 0 0 0 6.685 3.931z" class="cls-9"/>
                    </g>
                </g>
                <g id="Group_2251" transform="translate(15.29)">
                    <g id="Group_2250">
                        <path id="Path_1384" d="M4.692 11.065A2.284 2.284 0 0 0 6.237 8.3L4.483 1.7A2.278 2.278 0 0 0 1.624.1 2.279 2.279 0 0 0 .077 2.864l1.753 6.6a2.281 2.281 0 0 0 2.862 1.601z" class="cls-9"/>
                    </g>
                </g>
            </g>
            <g id="Group_2254" transform="translate(70.271 24.199)">
                <g id="Group_2253">
                    <path id="Path_1385" d="M1.819 34.913l1.863-.562a1.426 1.426 0 0 0 .546-.309L38.812 2.453A1.408 1.408 0 0 0 37.457.065l-19.14 5.772a1.409 1.409 0 0 0-.771.576L.236 32.793a1.408 1.408 0 0 0 1.583 2.12z" class="cls-9"/>
                </g>
            </g>
        </g>
        <g id="Group_12159" class="cls-8" transform="translate(1536.272 543.428)">
            <g id="Group_2256" transform="translate(52.418)">
                <path id="Path_1386" d="M4372.894 246.674h-30.323v-4.6h30.323v4.6" class="cls-10" transform="translate(-4342.571 -218.613)"/>
                <path id="Path_1387" d="M4373.063 211.158h-28.057v-2.3h28.057v2.3" class="cls-10" transform="translate(-4343.872 -200.848)"/>
                <path id="Path_1388" d="M4373.063 199.65h-28.057l14.028-8.012 14.028 8.012" class="cls-10" transform="translate(-4343.872 -191.638)"/>
                <path id="Path_1389" d="M4373.23 226.978h-25.807v-13.136h25.807v13.136m-24.237-13.136v7.1h22.669v-7.1h-22.669" class="cls-10" transform="translate(-4345.166 -203.513)"/>
                <path id="Path_1390" d="M4373.464 220.937H4350.8v-7.1h22.668v7.1" class="cls-10" transform="translate(-4346.968 -203.512)"/>
            </g>
            <path id="Rectangle_2436" d="M0 0H38.612V68.762H0z" class="cls-10" transform="translate(48.274 28.019)"/>
            <path id="Rectangle_2437" d="M0 0H17.657V53.728H0z" class="cls-10" transform="translate(24.37 43.053)"/>
            <path id="Rectangle_2438" d="M0 0H18.505V66.05H0z" class="cls-10" transform="translate(0 30.812)"/>
        </g>
        <g id="Group_12160" transform="translate(1216.665 423.094)">
            <path id="Line_285" d="M0 0L332.996 0" class="cls-1" transform="translate(30.25 266.574)"/>
            <g id="Group_2258" transform="translate(99.81 9.857)">
                <path id="Path_1391" d="M4112.565 81.582s5.655-.7 8.034 1.549 5.738 38.723 14.921 40.58c0 0 10.966-2.832 15.908-6.349 5.412-3.857 7.047-7.282 7.047-9.061s2.215-4.726 2.952-4.726.657 1.319.657 1.319 5.985-6.583 6.969-5.654-3.36 5.186-3.36 5.186 4.669-5.186 5.654-5.186-.322 2.46-1.72 3.783c0 0 2.212-1.25 2.869 0s-5 6.593-6.476 9.769-3.707 1.926-4.428 3.021c-10.822 16.417-30.09 21.653-34.76 15.024s-21.891-47.4-14.267-49.255z" class="cls-10" transform="translate(-3948.05 -36.784)"/>
                <path id="Path_1392" d="M4120.6 83.132c-2.378-2.248-8.035-1.549-8.035-1.549-3.337.814-1.917 9.075 1.126 18.665 3.359-1.425 6.624-3.443 10.042-4.785-1.314-6.381-2.287-11.53-3.134-12.33z" class="cls-12" transform="translate(-3948.05 -36.788)"/>
                <path id="Path_1393" fill="#189aaa" d="M4205.756 108.648l-7.841 13.623 6.063 3.046 10.39-13.764-8.611-2.905z" transform="translate(-3987.233 -48.978)"/>
                <path id="Path_1394" d="M4200.857 121.581a2.157 2.157 0 0 1 1.888 1.434c.41 1.356 0 1.779-.614 1.779s-1.068-1.315-1.557-1.315a8.877 8.877 0 0 0-2.113.906s1.25-2.455 2.4-2.8z" class="cls-10" transform="translate(-3987.48 -54.782)"/>
                <path id="Path_1395" d="M3973.974 401.672l-3.06 3.7s-1.106.928 1.107 3.484a12.913 12.913 0 0 1 2.869 7.663c0 1.591 3.975 2.869 3.975 2.869s-2.581-10.73-1.474-13.9c.573-1.645 12.815-17.336 25.067-32.934-3.321-2.253-6.455-4.841-10.2-6.671-8.32 16.127-18.281 35.79-18.281 35.79z" class="cls-10" transform="translate(-3885.188 -164.36)"/>
                <path id="Path_1396" d="M4068.732 239.065a73.665 73.665 0 0 1-24.244-11.148c-5.049 13.424-10.714 29.228-10.714 45.457 0 0-9.138 2.893-13.811 11.025-1.657 2.883-5.986 10.68-10.557 19.538a83.835 83.835 0 0 0 10.458 7.834c11.37-14.477 22.75-30.034 24.823-33.055 2.994-4.363 15.254-24.246 24.043-39.652z" class="cls-14" transform="translate(-3902.595 -102.458)"/>
                <path id="Path_1397" d="M4109.072 65.754a10.4 10.4 0 0 1-1.32-3.71s3.5-7.742 4.947-11.769-8.016-5.062-8.016-5.062-1.911 11.36-7.313 16.513c3.386 3.6 7.438 4.087 11.7 4.027z" class="cls-10" transform="translate(-3942.09 -20.533)"/>
                <path id="Path_1398" d="M4068.513 210.186c7.23 5.218 18.051 11.2 26.758 13.52 1.124-1.968 2.192-3.871 3.175-5.65a54.369 54.369 0 0 0 5.769-15.874c-8.708-1.554-16.828-5.889-24.891-8.473-2.57 5.057-8.046 9.13-10.812 16.477z" class="cls-14" transform="translate(-3929.133 -87.136)"/>
                <path id="Path_1399" d="M4154.161 384.955c-4.282 1.135-9.886 1.673-13.757 3.636 8.534 17.814 19.793 38.42 19.793 38.42s-1.916 4.579-1.208 5.246 8.155.267 9.326.267 8.372.345 8.372.345l-10.78-4.914c-.889-1.149-6.483-22.444-11.748-43z" class="cls-10" transform="translate(-3961.413 -172.924)"/>
                <path id="Path_1400" d="M4111.241 268.135c-1.229-4.763-11.523-34.778-16.6-49.5a13.331 13.331 0 0 0-14.029-8.615c-7.928.8-16.638 4.68-13.549 18.55 0 0 25.974 35.693 27.615 40.029s-1.642 5.268 1.966 15.8c1.423 4.156 4.976 16.679 10.537 28.287 3.867-1.958 9.681-5.172 13.96-6.307-4.593-17.924-9.14-35.288-9.9-38.244z" class="cls-14" transform="translate(-3928.197 -94.388)"/>
                <path id="Path_1401" d="M4208.54 111.01l6.17 2.069-8.2 11.672-4.013-2.018 3.924 1.742 7.936-11.286-5.819-2.179z" class="cls-2" transform="translate(-3989.292 -50.037)"/>
                <path id="Path_1402" d="M4119.122 16.764s5.534-.465 6.4 3.6-2.419 7.783-1.6 9.332a6.586 6.586 0 0 0 3.136 2.6c.493.2-.428 1.54-1.23 1.83 0 0-.352.74-.122.961s.8.607.615 1.131-1.139.786-1.139.786.938.915.463 1.365a4.111 4.111 0 0 1-1.477.694s.245 2.064-.8 2.671-4.2-.193-6.906-1.278c-.655-.262-1.565-.616-2.569-1a12.469 12.469 0 0 1-8.272-11.644c.1-6.372 2.526-13.429 13.505-11.057z" class="cls-10" transform="translate(-3945.792 -7.548)"/>
                <path id="Path_1403" d="M4111.885 95.02c-2.731-2.584-11.93-9.461-15.406-15.81-4.265.06-8.315-.432-11.7-4.027a10.286 10.286 0 0 1-1.917 1.481c-6.887 3.949 0 25.326 0 25.326s5.371 25.235 3.553 26.949c-.583.552-20.592 13.216-16.552 19.606 8.063 12.75 29.251 5.813 42.19 12.938 1.137.626-2.846-47.977-1.157-51.9 2.464-5.733 4.268-11.465.989-14.559z" class="cls-12" transform="translate(-3929.499 -33.953)"/>
                <path id="Path_1404" d="M3885.095 434.135a7.269 7.269 0 0 1 2.563 9.718 6.732 6.732 0 0 1-9.37 2.658 7.268 7.268 0 0 1-2.564-9.719 6.741 6.741 0 0 1 9.371-2.657z" transform="translate(-3842.167 -194.584)"/>
                <path id="Path_1405" d="M3848.618 363.892l-28.7-13.727a7.314 7.314 0 0 1-3.5-10.087l31.012-57.866c7.11-13.267 24.255-18.573 38.3-11.861l18.583 8.887-43.313 80.82a9.48 9.48 0 0 1-12.382 3.834z" class="cls-9" transform="translate(-3815.558 -120.162)"/>
                <path id="Path_1406" d="M3904.557 310.974l-43.046-20.586a5.557 5.557 0 0 1-2.66-7.663l6.394-11.93c5.4-10.077 18.428-14.114 29.1-9.011l29.115 13.921-18.9 35.27z" class="cls-9" transform="translate(-3834.704 -116.676)"/>
                <path id="Path_1407" d="M3870.952 372.859l-8-3.825a5.386 5.386 0 0 1-2.575-7.424l35.362-65.98c5.231-9.76 17.846-13.668 28.178-8.726l.235.11-44.575 83.174a6.6 6.6 0 0 1-8.622 2.671z" class="cls-9" transform="translate(-3835.398 -127.939)"/>
                <path id="Path_1408" d="M3976.833 225.186l-7.541-.455a4.864 4.864 0 0 0-4.558 2.432l-24.612 45.274h5.427l23.89-44.106a4.684 4.684 0 0 1 4.558-2.4l2.317.2-25.455 46.269 2.748.037 24.124-44.161a2.293 2.293 0 0 0-.9-3.089z" class="cls-9" transform="translate(-3871.488 -101.043)"/>
                <path id="Path_1409" fill="#552e5d" d="M3969.293 224.724c-5.549-.175-3.572 4.069-29.17 47.706 2.2-4.39 23.336-44.971 25.671-46.685a5.081 5.081 0 0 1 3.5-1.02z" transform="translate(-3871.488 -101.036)"/>
                <path id="Path_1410" d="M3905.1 311.133l18.733.1-30.759 57.392h-19.262l31.288-57.493z" class="cls-9" transform="translate(-3841.714 -139.778)"/>
                <path id="Path_1411" d="M3851.639 426.184a9.548 9.548 0 0 1 3.367 12.767 8.855 8.855 0 0 1-12.312 3.494 9.556 9.556 0 0 1-3.367-12.771 8.85 8.85 0 0 1 12.313-3.49z" transform="translate(-3825.698 -190.881)"/>
                <path id="Path_1412" fill="#474644" d="M3852.812 432.584a5.672 5.672 0 0 1 2 7.581 5.258 5.258 0 0 1-7.312 2.073 5.667 5.667 0 0 1-2-7.581 5.256 5.256 0 0 1 7.311-2.074z" transform="translate(-3828.686 -193.98)"/>
                <path id="Path_1413" d="M4051.913 82.08a9.4 9.4 0 0 0-5.505-2.08c-3.087 0-23.5 25.547-28.789 34.144-5.062 8.229-20.354 32.705-23.626 37.831l-2.464 5.291a4.753 4.753 0 0 0 .706 5.108l.4.473a10.734 10.734 0 0 0 2.145.235 9.936 9.936 0 0 0 1.831-.8 3.967 3.967 0 0 0 1.024.032 7.584 7.584 0 0 0 1.56-1.158l-1-5.908c21.026-35.518 48.226-56.064 56-60.155 4.645-2.45-2.275-13.01-2.275-13.01z" class="cls-10" transform="translate(-3894.369 -36.113)"/>
                <path id="Path_1414" fill="#18287d" d="M4080.16 78.466c-.977-1.393-2.91-2.928-7.015-.9-2 .993-13.333 14.61-21.434 25.322a44.88 44.88 0 0 1 7.51 8.068c10.033-9.548 18.42-15.414 22.188-17.4 4.646-2.45.959-11.935-1.25-15.093z" transform="translate(-3921.59 -34.591)"/>
                <path id="Path_1415" fill="#4f80ff" d="M4092.055 100a54.526 54.526 0 0 1 5.116-3.834c.843-.621 1.907-1.1 2.681-1.673a4.073 4.073 0 0 0 1.43-2.5 13.822 13.822 0 0 0-.591-6.142 26.463 26.463 0 0 0-2.418-5.851 20.1 20.1 0 0 1 2.912 5.7 13.617 13.617 0 0 1 .756 6.422 4.709 4.709 0 0 1-1.719 2.86 11 11 0 0 1-1.4.832l-1.375.791c-1.821 1.076-3.6 2.244-5.39 3.4z" transform="translate(-3939.704 -36.123)"/>
                <path id="Path_1416" d="M3970.826 432.8l-5.2 3.108s2.644 2.6 3.381 4.993 1.746 7.723 4.759 8.532a11.081 11.081 0 0 0 4.809.4 27.692 27.692 0 0 1-2.537-3.843 4.608 4.608 0 0 1-2.748-2.4c-.794-1.848-1.119-10.8-2.466-10.8z" class="cls-14" transform="translate(-3882.94 -194.408)"/>
                <path id="Path_1417" d="M4173.9 465.027l-1.274 3.793h19.657s-5.947-2.961-7.623-2.961c0 0-5.2.841-7.245.5a9.679 9.679 0 0 1-3.516-1.333z" class="cls-14" transform="translate(-3975.878 -208.875)"/>
                <path id="Path_1418" fill="#fd5e5a" d="M4117.427 32.285s-.705-2.6-1.832-1.531-1.66 3.039-.846 3.806 2.454.124 2.677-2.276z" transform="translate(-3949.717 -13.925)"/>
                <path id="Path_1419" d="M4086.636 2.97c-6.964-4.581-17.663-2.279-24.623 1.352-4.41 2.3-8.02 5.862-11.38 9.527-8.695 9.482-8.5 33.274-21.312 32.313-7.5-.563-6.731 10.643-6 16.945.336 2.9 2.54 5.133 3.042 7.979.613 3.49-1.112 6.945-.851 10.447.294 3.947 3.056 7.806 6.214 10.039 8.744 6.181 18.669-4.818 23.977-10.736 9.2-10.257 16.975-23.134 18.256-37.088.576-6.28-1.19-12.694-.231-18.894.017-.1.033-.206.051-.306a6.882 6.882 0 0 1 6.869-5.6 4.491 4.491 0 0 0 1.516-.276 20.354 20.354 0 0 1 2.6-.99 8.552 8.552 0 0 1 3.48.259 30.506 30.506 0 0 0 3.253-.011 3.024 3.024 0 0 0 1.092-.019c.547-.166.627-.638.619-1.134-.101-5.129-2.123-10.877-6.572-13.807z" class="cls-14" transform="translate(-3908.644 -.421)"/>
            </g>
            <g id="Group_2259">
                <path id="Path_1420" d="M3652.409 339.661c-10.685-6.372-15.337-17.828-10.362-26.067s17.785-10.284 29.031-4.836l1.376-2.28c-12.6-6.156-27.075-3.678-32.811 5.82s-.631 22.531 11.393 29.643l1.374-2.28z" transform="translate(-3635.707 -126.354)"/>
                <path id="Path_1421" d="M3652.409 339.661c-10.685-6.372-15.337-17.828-10.362-26.067s17.785-10.284 29.031-4.836l1.376-2.28c-12.6-6.156-27.075-3.678-32.811 5.82s-.631 22.531 11.393 29.643l1.374-2.28z" class="cls-9" transform="translate(-3635.707 -126.354)"/>
                <path id="Path_1422" d="M3635.107 325.055l7.527-1.6s-1.964-8.836 8.238-13.254l-2.992-7.062s-6.766 1.623-11.64 9.76c-3.274 5.462-1.133 12.155-1.133 12.155z" class="cls-9" transform="translate(-3634.42 -126.376)"/>
                <path id="Path_1423" fill="#38200a" d="M3647.478 328.842l.921-.2s-1.964-8.836 8.239-13.254l-.294-.694c-10.09 3.926-9.3 11.926-8.865 14.146z" transform="translate(-3640.184 -131.564)"/>
                <path id="Path_1424" d="M3822.7 217.6l3.1 1.673L3792.75 274l2.212 1.2 33.056-54.73-5.318-2.87z" class="cls-10" transform="translate(-3705.509 -87.983)"/>
                <path id="Path_1425" d="M3737.607 301.508a5.668 5.668 0 0 0-2.034-7.839q-1.021-.613-2.081-1.186c-23.916-12.891-54.363-5.025-68.008 17.566s-5.319 51.351 18.6 64.237q1.061.573 2.139 1.09a6.387 6.387 0 0 0 8.179-2.336l43.209-71.533z" class="cls-9" transform="translate(-3645.421 -118.764)"/>
                <path id="Path_1426" fill="#31511c" d="M3763.2 293.062a51.982 51.982 0 0 0-42.548-4.464 52.654 52.654 0 0 1 42.148 5.066 5.337 5.337 0 0 1 2.557 6.754c-.324.868-26.133 43.035-43.24 72.485 8.992-14.32 43.4-70.636 43.98-72.214a6.047 6.047 0 0 0-2.9-7.627z" transform="translate(-3673.135 -118.626)"/>
                <path id="Path_1427" d="M3749.968 321.837c-.217-.119-.432-.243-.654-.358-18.014-9.709-40.2-5.025-49.562 10.468s-2.337 35.923 15.677 45.632c.221.12.445.225.668.34l33.871-56.082z" class="cls-9" transform="translate(-3661.892 -132.294)"/>
                <path id="Path_1428" d="M3825.734 236.233l5.311 2.864 11.782-19.506-7.292-3.931-9.8 20.573z" class="cls-14" transform="translate(-3720.318 -87.127)"/>
                <path id="Path_1429" d="M3714.091 432.209a9.378 9.378 0 0 1 3.815 13.18 10.559 10.559 0 0 1-13.952 3.6 9.379 9.379 0 0 1-3.815-13.18 10.55 10.55 0 0 1 13.952-3.6z" class="cls-14" transform="translate(-3663.322 -183.711)"/>
                <path id="Path_1430" d="M3715.418 438.813a5.574 5.574 0 0 1 2.266 7.829 6.271 6.271 0 0 1-8.286 2.138 5.568 5.568 0 0 1-2.266-7.825 6.268 6.268 0 0 1 8.286-2.143z" class="cls-9" transform="translate(-3666.708 -186.909)"/>
                <path id="Path_1431" d="M3901.632 54.841s-3.122-1.687-11.439 5.131a136.723 136.723 0 0 0-46.644 77.914l-7.967 8.33s-2.14.744 1.744 1.963c0 0 .952 1.9 2.2 1.673a2.061 2.061 0 0 0 1.985.621c1.035-.391.678-1.577.678-1.577l4.792-11.043s17.617-31.022 26.52-41.872 35.248-35.247 28.128-41.141z" class="cls-10" transform="translate(-3724.475 -14.915)"/>
                <path id="Path_1432" d="M3890 83.5l12.118 12s24.1-28.733 25.416-34.346.25-7.544-2.443-7.425C3913.781 54.239 3890 83.5 3890 83.5z" class="cls-14" transform="translate(-3749.172 -14.496)"/>
                <path id="Path_1433" d="M3941.6 57.79a14.559 14.559 0 0 0-12.862-2.314c-7.211 2.309-19.974 38.808-23.347 56.178-.518 2.673-5.578 23.912-4 29.4 8.688 30.155 42.375 76.078 42.375 76.078l22.911 60.429s-1.938 6.376-1.24 8.023 4.3 0 7.328 0 10.816 1.32 11.4 1.32 6.28-1.431 6.28-1.431-12.328-1.757-16.515-9.012-13.144-67.283-13.144-67.283-16.476-82.671-17.018-90.919 6.435-52.548 3.527-56.5-5.7-3.96-5.7-3.96z" class="cls-12" transform="translate(-3754.153 -14.993)"/>
                <path id="Path_1434" d="M3871.719 206.073l.542 61.158s-22.563 60.21-25.82 63.286-11.447 9.755-11.447 9.755 5.417 3.636 8.6 6.2c4.036 3.251 7.5 3.112 17.265 3.112s-2.825-2.4-5.117-4.57c-4.217-3.981-1.86-12.744-1.86-12.744l36.054-56.5s17.136-49.117 24.154-50.951l1.748-25.051-44.123 6.3z" class="cls-12" transform="translate(-3724.476 -79.922)"/>
                <path id="Path_1435" d="M3944.9 116.833c-.543-8.239 2.317-52.446-.591-56.4s-5.7-3.958-5.7-3.958A12.182 12.182 0 0 0 3925 52.632c-7.175 2.408-23.147 39.329-26.519 56.688-.52 2.676-5.31 30.669-3.728 36.153.01.036 56.4 3.416 56.4 3.416-1.651-9.052-6.118-29.974-6.255-32.057z" class="cls-14" transform="translate(-3751.168 -13.68)"/>
                <path id="Path_1436" d="M3971.939 33.066S3962.5 41 3960.11 44.72c-1.207 1.885 4.059 5.085 8.538 7.223a3.472 3.472 0 0 0 4.419-1.26l7.5-12.224-8.623-5.393z" class="cls-10" transform="translate(-3780.573 -5.221)"/>
                <path id="Path_1437" d="M3998.188 2.608c0-6.155-5.737-9.231-5.737-9.231-9.677-2.863-14.965 2.338-17.47 8.368-3.821.209-4.659 5.122-2.69 6.982a4.944 4.944 0 0 0 .878.657c-.226 3 .191 5.3.983 5.673 2.831 1.32 2.947 4.138 5.62 7.581s8.724 2.308 9.693.657a7.863 7.863 0 0 1 2.986-2.524c.291-.276 0-.809 0-.809.892-.841.387-2.487.387-2.487l2.481.584s2.869-9.299 2.869-15.451z" class="cls-10" transform="translate(-3785.659 12.962)"/>
                <path id="Path_1438" d="M3909.79 70.274c6.873 6.151-21.923 24.582-31.264 35.1s-25.353 42.635-25.353 42.635l-7.147 10.077s-.656.216-1.7.57a2.059 2.059 0 0 1-1.958-.694c-1.259.184-2.133-1.752-2.133-1.752-1.467-.524-2.05-.943-2.216-1.26a.009.009 0 0 1-.01 0c-.786-.644.31-6.2 1.174-6.487.612-.2.893 2.537 1.007 4.161l6.687-6.468c9.22-38.033 23.019-60.818 40.034-73.6s22.885-2.281 22.885-2.281z" class="cls-10" transform="translate(-3725.706 -20.067)"/>
                <path id="Path_1439" d="M3907.475 101.291L3889.4 90.39s17.49-20.172 27.242-24.466 17.14-1.821 18.363 1.439 2.13 5.365-4.117 11.833-23.414 22.095-23.414 22.095z" class="cls-14" transform="translate(-3748.904 -18.916)"/>
                <path id="Path_1440" d="M3893.951 198.294c14.912 3.186 42.245 6.33 53.561-3.384l1.2 4.161c-4.1 3.89-7.118 4.133-12.222 5.489-13.386 3.122-31.52 1.122-43.138-2.533l.6-3.733z" class="cls-9" transform="translate(-3750.678 -77.82)"/>
                <path id="Path_1441" d="M3945.99 212.963h-16.436a6.373 6.373 0 0 1-6.37-6.372v-1.7a6.369 6.369 0 0 1 6.37-6.367h16.436a6.369 6.369 0 0 1 6.369 6.367v1.7a6.373 6.373 0 0 1-6.369 6.372z" class="cls-9" transform="translate(-3764.072 -79.441)"/>
                <path id="Path_1442" d="M3938.848 211.7a23.875 23.875 0 0 1-9.521-1.977l-2.252-.979a.4.4 0 0 1-.207-.533.44.44 0 0 1 .56-.193l2.252.979a22.921 22.921 0 0 0 20.933-1.357.445.445 0 0 1 .584.124.387.387 0 0 1-.129.552 23.694 23.694 0 0 1-12.221 3.384z" transform="translate(-3765.711 -83.509)"/>
                <path id="Path_1443" d="M3981.12-6.215a1.3 1.3 0 0 1 1.924-.386c2.459 1.914 8.215 6.091 11.622 6.091 4.42 0 12.374-5.14 10.468-11.429a21.93 21.93 0 0 0-1.087-2.56c-1.092-2.283-3.461 1.667-4.916 1.649a4.934 4.934 0 0 1-2.054-.622c-7.271-3.532-14.947-5.076-22.991-3.178-4.988 1.176-10.061 4.943-11.637 9.989-1.51 4.836 0 9.778 0 13.511 0 2.916 3.982 5.437 5.732 6.4a1.3 1.3 0 0 0 1.478-.162l2.541-2.222a1.3 1.3 0 0 0 .426-1.2 13.2 13.2 0 0 1 .757-7.435c.933-2 1.833-2.079 2.468-1.721a1.281 1.281 0 0 0 1.732-.5z" class="cls-14" transform="translate(-3781.4 17.468)"/>
                <path id="Path_1444" d="M4027.739 460.464h-9.008c-.5 1.827-1.509 5.836-.976 7.093.7 1.65 4.3 0 7.327 0s10.816 1.319 11.4 1.319 6.28-1.43 6.28-1.43-9.97-1.422-15.023-6.982z" class="cls-14" transform="translate(-3806.467 -196.969)"/>
                <path id="Path_1445" d="M3855.745 453.4c-2.233-2.109-2.623-5.559-2.495-8.338l-.415-.153a77.48 77.48 0 0 1-8.927-3.734c-3.757 3.274-8.914 7.481-8.914 7.481s5.417 3.636 8.6 6.2c4.036 3.25 7.5 3.112 17.265 3.112s-2.822-2.398-5.114-4.568z" class="cls-14" transform="translate(-3724.476 -188.311)"/>
            </g>
            <g id="Group_2260" transform="translate(175.592 73.609)">
                <path id="Path_1446" d="M3955.3 121.386s-1.712-.183-1.9 1.1-.49 8.5-.183 9.847-.123 3.425 1.162 4.587a5.113 5.113 0 0 0 3.669 1.59c1.468.061 18.653-.611 18.653-.611s.917.122.856-4.771.061-9.3-.612-10.152a7.394 7.394 0 0 0-3.118-1.651c-.367-.061-3.792-.122-5.993-.061s-9.779-.364-12.534.122z" class="cls-22" transform="translate(-3953.094 -118.334)"/>
                <path id="Path_1447" d="M3977.315 122.976a7.4 7.4 0 0 0-3.119-1.651c-.366-.061-3.792-.122-5.994-.061s-9.786-.366-12.537.123c0 0-1.319-.14-1.766.694.751.738 1.914 1.656 2.376 2.119.612.612 2.079-.122 3.3-.061s9.418.367 10.581.428c.967.051 5.816-.194 7.528-.314a2.948 2.948 0 0 0-.369-1.277z" class="cls-22" transform="translate(-3953.456 -118.334)"/>
                <path id="Path_1448" d="M3979.623 134.7c-.056-4.53.041-8.635-.475-9.9a17.363 17.363 0 0 0-2.032-.07c-.612.061-12.478-.368-16.7.306 0 0-2.506-.612-2.689.979s.183 10.764.368 11.987a12.9 12.9 0 0 0 .328 1.775 5.472 5.472 0 0 0 1.688.3c1.469.061 18.654-.611 18.654-.611s.918.134.858-4.766z" class="cls-22" transform="translate(-3955.152 -119.909)"/>
                <path id="Path_1449" d="M3958.066 140.953h21.434a21.39 21.39 0 0 0 .134-3c-.028-2.215-.019-4.325-.061-6.054h-21.877c.035 3.052.235 7.628.37 9.054z" class="cls-23" transform="translate(-3955.157 -123.162)"/>
                <circle id="Ellipse_106" cx="5.382" cy="5.382" r="5.382" fill="#0e3e51" transform="translate(8.178 9.789)"/>
                <circle id="Ellipse_107" cx="5.382" cy="5.382" r="5.382" fill="#062136" transform="translate(8.386 10.391)"/>
                <circle id="Ellipse_108" cx="3.853" cy="3.853" r="3.853" class="cls-22" transform="translate(9.915 11.919)"/>
                <path id="Path_1450" d="M3965.029 128.4a7.373 7.373 0 0 0-.073-1.513 2.569 2.569 0 0 0-.31-.011 25.449 25.449 0 0 0-2.552.047s-.383-.093-.411.15.029 1.645.056 1.832a2.146 2.146 0 0 0 .051.271.822.822 0 0 0 .258.046c.225.01 2.851-.093 2.851-.093s.14.018.13-.729z" class="cls-22" transform="translate(-3956.947 -120.9)"/>
                <path id="Path_1451" d="M3960.931 119.294c0-.27-.534-.489-1.192-.489s-1.193.219-1.193.489v2.018c0 .27.533.489 1.193.489s1.192-.219 1.192-.489z" class="cls-10" transform="translate(-3955.542 -117.282)"/>
                <ellipse id="Ellipse_109" cx="1.193" cy=".489" class="cls-10" rx="1.193" ry=".489" transform="translate(3.004 1.523)"/>
                <path id="Path_1452" d="M3988.611 119.926c0-.27-.534-.489-1.192-.489s-1.193.219-1.193.489v1.284c0 .27.533.489 1.193.489s1.192-.219 1.192-.489z" class="cls-10" transform="translate(-3967.97 -117.566)"/>
                <ellipse id="Ellipse_110" cx="1.193" cy=".489" class="cls-10" rx="1.193" ry=".489" transform="translate(18.256 1.871)"/>
                <path id="Path_1453" d="M3967.092 116.216l4.588-.175a11.379 11.379 0 0 1 1.908 1.051 42.537 42.537 0 0 1 2.487 3.817s-2.592.07-6.391.14-3.572-.123-3.572-.123l-1.612-2.171s-.141-.088.071-.228 2.065-2.241 2.521-2.311z" class="cls-10" transform="translate(-3958.194 -116.041)"/>
                <path id="Path_1454" d="M3975.9 117.455a2.732 2.732 0 0 0-.3-.363 11.417 11.417 0 0 0-1.908-1.051l-4.587.175a.535.535 0 0 0-.169.076c.549.455 1.636 1.344 1.919 1.5a21.526 21.526 0 0 0 3.888-.245s.657-.047 1.157-.092z" class="cls-10" transform="translate(-3960.206 -116.041)"/>
                <path id="Path_1455" d="M3975.212 118.239c-1.031.056-4.734.462-4.888.54-.174.087-.3.455-.875 1.138-.427.5-1.276 1.543-1.7 2.059a24.91 24.91 0 0 0 3.412.06c3.8-.07 6.391-.14 6.391-.14s-1.708-2.876-2.34-3.657z" class="cls-23" transform="translate(-3959.674 -117.028)"/>
            </g>
            <g id="Group_2261" transform="translate(175.349 34.053)">
                <path id="Path_1456" d="M3956.326 58.1c-1.194-4.45-2.138-7.966-.881-9.737.669-.942 2.077-1.511 4.256-1.748a5.236 5.236 0 0 1 .486-.695 4.978 4.978 0 0 1 1.272-1.574 10.079 10.079 0 0 0-1.308.007c-3.285.245-5.352 1.115-6.5 2.736-1.854 2.615-.793 6.572.551 11.582.57 2.126 1.215 4.537 1.711 7.109a128.109 128.109 0 0 1 2.06 22.953l2.2.035a130.426 130.426 0 0 0-2.1-23.405c-.51-2.645-1.167-5.095-1.747-7.263z" class="cls-22" transform="translate(-3952.653 -44.333)"/>
                <path id="Path_1457" d="M3984.647 74.592c-.027-.52-.043-1.14-.062-1.834a57.377 57.377 0 0 0-.891-9.856c-.017.034-.04.064-.058.1a4.983 4.983 0 0 1-1.8 2.115 65.515 65.515 0 0 1 .554 7.7c.02.714.037 1.351.064 1.884.3 6.021.366 21.142.366 21.294l2.2-.009c-.006-.151-.068-15.323-.373-21.394z" class="cls-22" transform="translate(-3965.754 -52.67)"/>
            </g>
        </g>
        <g id="Group_12455" transform="translate(1108)">
            <path id="Rectangle_2519" fill="none" d="M0 0H552V398H0z" transform="translate(60 316)"/>
        </g>
        <g id="Group_4180" transform="translate(948.4 200.834)">
            <g id="Group_4179" transform="translate(268 189.5)">
                <path id="Path_10452" fill="#fff" stroke="#195dff" stroke-linecap="round" stroke-miterlimit="10" stroke-width="1.2px" d="M1464.522 556.131c-2.221-.89-4.45-1.77-6.671-2.662q-4.919-1.976-9.831-3.963-9.447-3.809-18.9-7.611c-.57-.228-1.174-.37-1.764-.553a1.771 1.771 0 0 0-.386-.291c-3.167-1.276-6.327-2.571-9.514-3.79a2.443 2.443 0 0 0-1.592.038c-2.84 1.081-5.657 2.23-8.475 3.366a1.7 1.7 0 0 0-.4.33 1.6 1.6 0 0 0-.48.032q-2.628 1.035-5.25 2.094l-15.037 6.042q-8.691 3.493-17.385 6.977a1.906 1.906 0 0 0-1.227 1.188 3.948 3.948 0 0 0-.145 1.387c.288 3.943.567 7.888.924 11.826.307 3.406.677 6.809 1.082 10.206.359 3.005.793 6 1.216 9 .082.574.269 1.131.408 1.7a1.755 1.755 0 0 0-.058.49c.419 2.377.816 4.76 1.288 7.126a105.167 105.167 0 0 0 3.9 14.857 30.723 30.723 0 0 0 4.414 8.756 42.16 42.16 0 0 0 6.881 6.688c3.145 2.55 6.326 5.06 9.569 7.484 3.463 2.588 7 5.076 10.532 7.571 2.407 1.7 4.861 3.338 7.286 5.01 1.425.981 2.221.963 3.649-.041 1.141-.8 2.318-1.554 3.466-2.351.961-.67 1.9-1.373 2.848-2.062.447-.273.914-.518 1.34-.823 3.827-2.754 7.677-5.475 11.458-8.288a133.945 133.945 0 0 0 12.017-9.87 25.194 25.194 0 0 0 5.667-7.6 65.666 65.666 0 0 0 4.341-13.047c.8-3.42 1.446-6.877 2.14-10.322.135-.675.176-1.37.262-2.057a3.983 3.983 0 0 0 .206-.6c.153-.89.3-1.782.42-2.679.5-3.66 1.027-7.318 1.455-10.987.439-3.75.8-7.509 1.138-11.268.27-3.016.462-6.04.657-9.063a2.033 2.033 0 0 0-1.449-2.24z" transform="translate(-1367.454 -537.147)"/>
            </g>
            <text id="COVID-19_Covered_" fill="#264a9f" stroke="rgba(0,0,0,0)" font-family="Poppins-Medium, Poppins" font-size="14px" font-weight="500" transform="translate(275.525 227.248)">
                <tspan x="8.035" y="15">COVID-19</tspan><tspan x="3.261" y="31"> COVERED*</tspan>
            </text>
        </g>
    </g>
</svg>
